<svg width="17" height="17" viewBox="0 0 17 17" fill="none" xmlns="http://www.w3.org/2000/svg">
<path id="Vector" d="M15.4668 9.478H2.66678V3.49287C2.66616 3.26748 2.71037 3.0442 2.79684 2.83596C2.88331 2.62772 3.01033 2.43866 3.17055 2.27972L3.18388 2.26642C3.43497 2.01632 3.75734 1.84965 4.10695 1.78917C4.45656 1.7287 4.81637 1.77736 5.13721 1.92853C4.8342 2.43108 4.70826 3.02023 4.77939 3.60236C4.85053 4.1845 5.11466 4.72622 5.52981 5.14144L5.89485 5.50557L5.22295 6.17584L5.97715 6.92817L6.64905 6.25794L10.372 2.54426L11.0439 1.87403L10.2897 1.12167L9.61775 1.7919L9.25271 1.42777C8.81567 0.993029 8.23956 0.725038 7.62477 0.670498C7.00999 0.615959 6.39551 0.778329 5.88841 1.12931C5.35369 0.792455 4.72 0.647031 4.09146 0.716931C3.46292 0.78683 2.87691 1.0679 2.42968 1.51396L2.41635 1.52726C2.15676 1.78478 1.95096 2.09111 1.81085 2.42851C1.67075 2.76591 1.59912 3.12768 1.60011 3.49287V9.478H0.533447V10.542H1.60011V11.5628C1.60009 11.6486 1.61396 11.7338 1.64118 11.8152L2.63345 14.7844C2.6864 14.9434 2.78822 15.0817 2.92445 15.1797C3.06068 15.2776 3.22438 15.3303 3.39231 15.3301H3.82231L3.43345 16.6602H4.54455L4.93345 15.3301H11.8701L12.2701 16.6602H13.3834L12.9834 15.3301H13.6744C13.8424 15.3303 14.0061 15.2777 14.1424 15.1797C14.2786 15.0817 14.3805 14.9434 14.4334 14.7844L15.4256 11.8152C15.4529 11.7338 15.4668 11.6486 15.4668 11.5628V10.542H16.5334V9.478H15.4668ZM6.28411 2.18014C6.57798 1.88764 6.97616 1.72337 7.3913 1.72337C7.80643 1.72337 8.20462 1.88764 8.49848 2.18014L8.86345 2.54426L6.64915 4.75308L6.28411 4.38901C5.9909 4.09587 5.82624 3.69868 5.82624 3.28457C5.82624 2.87047 5.9909 2.47328 6.28411 2.18014ZM14.4001 11.5196L13.4824 14.2661H3.58451L2.66678 11.5196V10.542H14.4001V11.5196Z" fill="#8D8D8D"/>
</svg>
