<svg width="18" height="16" viewBox="0 0 18 16" fill="none" xmlns="http://www.w3.org/2000/svg">
<path id="Vector" d="M12.2667 0.726563C12.9437 0.726458 13.5954 0.983877 14.0896 1.4466C14.5839 1.90933 14.8836 2.54272 14.928 3.2183L14.9333 3.39323V6.11323C15.5049 6.23012 16.0224 6.53115 16.4065 6.97021C16.7907 7.40927 17.0203 7.96214 17.0603 8.54416L17.0667 8.72656V15.1266C17.0669 15.2598 17.0173 15.3884 16.9275 15.4869C16.8377 15.5854 16.7143 15.6467 16.5815 15.6587C16.4488 15.6707 16.3164 15.6326 16.2103 15.5519C16.1043 15.4712 16.0323 15.3537 16.0085 15.2226L16 15.1266V12.4599H1.06667V15.1266C1.06691 15.2598 1.01725 15.3884 0.927458 15.4869C0.837667 15.5854 0.714254 15.6467 0.581523 15.6587C0.448793 15.6707 0.316363 15.6326 0.210313 15.5519C0.104263 15.4712 0.0322776 15.3537 0.00853328 15.2226L5.55884e-08 15.1266V8.72656C-0.000125414 8.11181 0.212151 7.5159 0.600903 7.03968C0.989656 6.56346 1.53101 6.23618 2.13333 6.11323V3.39323C2.13323 2.7162 2.39065 2.06447 2.85338 1.57025C3.3161 1.07602 3.94949 0.776309 4.62507 0.731896L4.8 0.726563H12.2667ZM14.4 7.12656H2.66667C2.26909 7.12656 1.88576 7.27457 1.59135 7.54176C1.29695 7.80895 1.11257 8.17618 1.07413 8.57189L1.06667 8.72656V11.3932H16V8.72656C16 8.32899 15.852 7.94565 15.5848 7.65125C15.3176 7.35684 14.9504 7.17246 14.5547 7.13403L14.4 7.12656ZM12.2667 1.79323H4.8C4.40226 1.79325 4.01878 1.94141 3.72435 2.20882C3.42992 2.47623 3.24565 2.84372 3.20747 3.23963L3.2 3.39323V6.0599H4.26667V5.52656C4.26667 5.38511 4.32286 5.24946 4.42288 5.14944C4.5229 5.04942 4.65855 4.99323 4.8 4.99323H7.46667C7.60812 4.99323 7.74377 5.04942 7.84379 5.14944C7.94381 5.24946 8 5.38511 8 5.52656V6.0599H9.06667V5.52656C9.06667 5.38511 9.12286 5.24946 9.22288 5.14944C9.3229 5.04942 9.45855 4.99323 9.6 4.99323H12.2667C12.4081 4.99323 12.5438 5.04942 12.6438 5.14944C12.7438 5.24946 12.8 5.38511 12.8 5.52656V6.0599H13.8667V3.39323C13.8667 2.99565 13.7187 2.61232 13.4515 2.31791C13.1843 2.02351 12.817 1.83913 12.4213 1.8007L12.2667 1.79323Z" fill="#8D8D8D"/>
</svg>
