<svg width="14" height="14" viewBox="0 0 14 14" fill="none" xmlns="http://www.w3.org/2000/svg">
<g id="Group 31">
<path id="Vector" d="M8.29974 13.3274H6.99974C6.76996 13.3272 6.54965 13.2358 6.38717 13.0733C6.22469 12.9108 6.1333 12.6905 6.13307 12.4607V10.2941H6.99974V12.4607H8.29974V10.2941H9.16641V8.56074C9.16629 8.44585 9.1206 8.3357 9.03936 8.25446C8.95812 8.17322 8.84797 8.12752 8.73307 8.12741H4.95441L4.08774 5.52741H1.36641C1.25151 5.52752 1.14136 5.57322 1.06012 5.65446C0.978879 5.7357 0.933188 5.84585 0.933073 5.96074V8.56074H1.79974V12.4607H3.53307V9.42741H4.39974V12.4607C4.39951 12.6905 4.30813 12.9108 4.14565 13.0733C3.98316 13.2358 3.76286 13.3272 3.53307 13.3274H1.79974C1.56996 13.3272 1.34965 13.2358 1.18717 13.0733C1.02469 12.9108 0.933302 12.6905 0.933073 12.4607V9.42741C0.703289 9.42718 0.482982 9.3358 0.3205 9.17332C0.158019 9.01083 0.0666357 8.79053 0.0664062 8.56074V5.96074C0.0667504 5.61607 0.203825 5.28561 0.447548 5.04188C0.69127 4.79816 1.02173 4.66109 1.36641 4.66074H4.08774C4.26961 4.66063 4.4469 4.71779 4.59446 4.82412C4.74201 4.93045 4.85233 5.08054 4.90977 5.25311L5.57841 7.26074H8.73307C9.07775 7.26109 9.40821 7.39816 9.65193 7.64188C9.89565 7.88561 10.0327 8.21607 10.0331 8.56074V10.2941C10.0328 10.5239 9.94146 10.7442 9.77898 10.9066C9.6165 11.0691 9.39619 11.1605 9.16641 11.1607V12.4607C9.16618 12.6905 9.07479 12.9108 8.91231 13.0733C8.74983 13.2358 8.52952 13.3272 8.29974 13.3274ZM11.7664 13.3274H10.8997V8.56074H12.1997V5.96074C12.1996 5.84585 12.1539 5.7357 12.0727 5.65446C11.9915 5.57322 11.8813 5.52752 11.7664 5.52741H10.0331V4.66074H11.7664C12.1111 4.66109 12.4415 4.79816 12.6853 5.04188C12.929 5.28561 13.0661 5.61607 13.0664 5.96074V8.56074C13.0662 8.79053 12.9748 9.01083 12.8123 9.17332C12.6498 9.3358 12.4295 9.42718 12.1997 9.42741H11.7664V13.3274ZM2.66641 4.22741C2.32359 4.22741 1.98846 4.12575 1.70342 3.93529C1.41837 3.74483 1.19621 3.47412 1.06502 3.15739C0.933823 2.84067 0.899497 2.49215 0.966379 2.15592C1.03326 1.81969 1.19834 1.51084 1.44075 1.26842C1.68317 1.02601 1.99202 0.86093 2.32825 0.794048C2.66448 0.727167 3.013 0.761493 3.32972 0.892685C3.64645 1.02388 3.91716 1.24604 4.10762 1.53109C4.29808 1.81613 4.39974 2.15126 4.39974 2.49408C4.39917 2.95361 4.21636 3.39416 3.89142 3.71909C3.56649 4.04403 3.12594 4.22684 2.66641 4.22741ZM2.66641 1.62741C2.495 1.62741 2.32743 1.67824 2.18491 1.77347C2.04239 1.8687 1.93131 2.00405 1.86571 2.16242C1.80011 2.32078 1.78295 2.49504 1.81639 2.66315C1.84983 2.83127 1.93237 2.9857 2.05358 3.1069C2.17479 3.22811 2.32921 3.31065 2.49733 3.34409C2.66544 3.37753 2.8397 3.36037 2.99807 3.29477C3.15643 3.22918 3.29178 3.11809 3.38701 2.97557C3.48224 2.83305 3.53307 2.66549 3.53307 2.49408C3.53284 2.26429 3.44146 2.04399 3.27898 1.8815C3.1165 1.71902 2.89619 1.62764 2.66641 1.62741ZM10.4664 4.22741C10.1236 4.22741 9.78846 4.12575 9.50342 3.93529C9.21837 3.74483 8.99621 3.47412 8.86502 3.15739C8.73382 2.84067 8.6995 2.49215 8.76638 2.15592C8.83326 1.81969 8.99834 1.51084 9.24076 1.26842C9.48317 1.02601 9.79202 0.86093 10.1283 0.794048C10.4645 0.727167 10.813 0.761493 11.1297 0.892685C11.4464 1.02388 11.7172 1.24604 11.9076 1.53109C12.0981 1.81613 12.1997 2.15126 12.1997 2.49408C12.1992 2.95361 12.0164 3.39416 11.6914 3.71909C11.3665 4.04403 10.9259 4.22684 10.4664 4.22741ZM10.4664 1.62741C10.295 1.62741 10.1274 1.67824 9.98491 1.77347C9.84239 1.8687 9.73131 2.00405 9.66571 2.16242C9.60011 2.32078 9.58295 2.49504 9.61639 2.66315C9.64983 2.83127 9.73238 2.9857 9.85358 3.1069C9.97479 3.22811 10.1292 3.31065 10.2973 3.34409C10.4654 3.37753 10.6397 3.36037 10.7981 3.29477C10.9564 3.22918 11.0918 3.11809 11.187 2.97557C11.2822 2.83305 11.3331 2.66549 11.3331 2.49408C11.3328 2.26429 11.2415 2.04399 11.079 1.8815C10.9165 1.71902 10.6962 1.62764 10.4664 1.62741Z" fill="#E92727"/>
<path id="Vector_2" d="M7.64972 6.82728C7.34976 6.82728 7.05652 6.73833 6.80711 6.57168C6.55769 6.40502 6.3633 6.16815 6.24851 5.89102C6.13371 5.61388 6.10368 5.30893 6.1622 5.01473C6.22072 4.72052 6.36517 4.45028 6.57728 4.23817C6.78939 4.02606 7.05963 3.88161 7.35384 3.82309C7.64804 3.76457 7.95299 3.7946 8.23013 3.9094C8.50726 4.02419 8.74413 4.21858 8.91079 4.468C9.07744 4.71741 9.16639 5.01064 9.16639 5.31061C9.16593 5.71272 9.00599 6.09822 8.72166 6.38255C8.43733 6.66688 8.05183 6.82682 7.64972 6.82728ZM7.64972 4.66061C7.52117 4.66061 7.3955 4.69873 7.2886 4.77016C7.18171 4.84158 7.0984 4.9431 7.0492 5.06187C7.00001 5.18064 6.98713 5.31133 7.01221 5.43742C7.03729 5.56351 7.0992 5.67933 7.19011 5.77023C7.28101 5.86114 7.39683 5.92304 7.52292 5.94812C7.649 5.9732 7.7797 5.96033 7.89847 5.91113C8.01724 5.86194 8.11876 5.77863 8.19018 5.67173C8.2616 5.56484 8.29972 5.43917 8.29972 5.31061C8.2995 5.13829 8.23094 4.9731 8.10909 4.85125C7.98724 4.7294 7.82204 4.66084 7.64972 4.66061Z" fill="#E92727"/>
</g>
</svg>
