<svg width="17" height="17" viewBox="0 0 17 17" fill="none" xmlns="http://www.w3.org/2000/svg">
<g id="Group 33">
<path id="Vector" d="M14.6739 8.59972H14.6566L13.2898 5.52424C13.1621 5.23747 12.9541 4.99383 12.6908 4.82281C12.4276 4.65178 12.1204 4.56069 11.8065 4.56055H4.55686C4.24296 4.56071 3.93583 4.65182 3.67262 4.82284C3.40941 4.99386 3.20138 5.23748 3.07369 5.52424L1.70674 8.59972H1.68946C1.40258 8.60005 1.12755 8.71415 0.924699 8.917C0.721848 9.11985 0.607744 9.39489 0.607422 9.68176V13.4689C0.607744 13.7558 0.721848 14.0308 0.924699 14.2337C1.12755 14.4365 1.40258 14.5506 1.68946 14.5509V15.9219C1.68971 16.1371 1.77529 16.3434 1.92743 16.4955C2.07956 16.6476 2.28583 16.7332 2.50099 16.7335H4.39455C4.60971 16.7332 4.81597 16.6476 4.96811 16.4955C5.12025 16.3434 5.20583 16.1371 5.20608 15.9219V14.5509H11.1573V15.9219C11.1575 16.1371 11.2431 16.3434 11.3953 16.4955C11.5474 16.6476 11.7537 16.7332 11.9688 16.7335H13.8624C14.0775 16.7332 14.2838 16.6476 14.4359 16.4955C14.5881 16.3434 14.6737 16.1371 14.6739 15.9219V14.5509C14.9608 14.5506 15.2358 14.4365 15.4387 14.2337C15.6415 14.0308 15.7556 13.7558 15.7559 13.4689V9.68176C15.7556 9.39489 15.6415 9.11985 15.4387 8.917C15.2358 8.71415 14.9608 8.60005 14.6739 8.59972ZM4.06233 5.96381C4.1049 5.86821 4.17426 5.78698 4.26203 5.72997C4.34979 5.67296 4.4522 5.64261 4.55686 5.64258H11.8065C11.9111 5.64264 12.0135 5.67301 12.1013 5.73001C12.189 5.78702 12.2583 5.86823 12.3009 5.96381L13.4724 8.59969H2.89082L4.06233 5.96381ZM4.12404 15.6514H2.7715V14.5509H4.12404V15.6514ZM13.5919 15.6514H12.2393V14.5509H13.5919V15.6514ZM14.6739 13.4689H1.68946V9.68176H14.6739V13.4689Z" fill="#8D8D8D"/>
<path id="Vector_2" d="M2.7715 11.0518H5.47659V12.1339H2.7715V11.0518ZM10.8868 11.0518H13.5919V12.1339H10.8868V11.0518ZM8.18168 0.459961L0.0664062 3.71835V4.88434L8.18168 1.62599L16.297 4.88434V3.71835L8.18168 0.459961Z" fill="#8D8D8D"/>
</g>
</svg>
