<svg width="11" height="14" viewBox="0 0 11 14" fill="none" xmlns="http://www.w3.org/2000/svg">
<g id="Location">
<path id="Vector" d="M5.33333 0.145508C3.91936 0.147176 2.56378 0.709614 1.56394 1.70945C0.564112 2.70928 0.00167378 4.06486 5.67412e-06 5.47884C-0.00168785 6.63434 0.375753 7.75849 1.07443 8.67883C1.07443 8.67883 1.21988 8.87035 1.24364 8.89798L5.33333 13.7213L9.42496 8.89556C9.4463 8.86986 9.59224 8.67883 9.59224 8.67883L9.59272 8.67738C10.2911 7.75743 10.6683 6.63381 10.6667 5.47884C10.665 4.06486 10.1026 2.70928 9.10272 1.70945C8.10289 0.709614 6.74731 0.147176 5.33333 0.145508ZM5.33333 7.41823C4.94976 7.41823 4.5748 7.30448 4.25587 7.09138C3.93693 6.87828 3.68836 6.57539 3.54157 6.22101C3.39478 5.86663 3.35637 5.47668 3.43121 5.10048C3.50604 4.72427 3.69075 4.37871 3.96198 4.10748C4.2332 3.83625 4.57877 3.65154 4.95498 3.57671C5.33118 3.50188 5.72113 3.54028 6.07551 3.68707C6.42988 3.83386 6.73278 4.08244 6.94588 4.40137C7.15898 4.7203 7.27273 5.09526 7.27273 5.47884C7.27208 5.993 7.06755 6.48592 6.70398 6.84948C6.34041 7.21305 5.8475 7.41759 5.33333 7.41823Z" fill="#8D8D8D"/>
</g>
</svg>
