<svg width="24" height="25" viewBox="0 0 24 25" fill="none" xmlns="http://www.w3.org/2000/svg">
<g id="octicon:home-24">
<path id="Vector" d="M11.03 3.08991C11.3011 2.86035 11.6448 2.73438 12 2.73438C12.3552 2.73437 12.6989 2.86035 12.97 3.08991L20.47 9.45291C20.6361 9.5937 20.7695 9.76896 20.861 9.96652C20.9526 10.1641 21 10.3792 21 10.5969V19.9999C21 20.3977 20.842 20.7793 20.5607 21.0606C20.2794 21.3419 19.8978 21.4999 19.5 21.4999H13.75C13.5511 21.4999 13.3603 21.4209 13.2197 21.2802C13.079 21.1396 13 20.9488 13 20.7499V14.4999H11V20.7499C11 20.9488 10.921 21.1396 10.7803 21.2802C10.6397 21.4209 10.4489 21.4999 10.25 21.4999H4.5C4.10218 21.4999 3.72064 21.3419 3.43934 21.0606C3.15804 20.7793 3 20.3977 3 19.9999V10.5969C3 10.1569 3.194 9.73791 3.53 9.45291L11.03 3.08991ZM12 4.23391L4.5 10.5969V19.9999H9.5V13.7499C9.5 13.551 9.57902 13.3602 9.71967 13.2196C9.86032 13.0789 10.0511 12.9999 10.25 12.9999H13.75C13.9489 12.9999 14.1397 13.0789 14.2803 13.2196C14.421 13.3602 14.5 13.551 14.5 13.7499V19.9999H19.5V10.5969L12 4.23391Z" fill="#181A20"/>
</g>
</svg>
