<svg width="37" height="38" viewBox="0 0 37 38" fill="none" xmlns="http://www.w3.org/2000/svg">
<g id="tabler:refresh">
<path id="Vector" d="M30.8335 17.4578C30.4565 14.7448 29.1979 12.2311 27.2517 10.3037C25.3054 8.37639 22.7795 7.14242 20.0629 6.7919C17.3464 6.44138 14.59 6.99375 12.2182 8.36393C9.84649 9.7341 7.99105 11.8461 6.9377 14.3745M6.16687 8.20784V14.3745H12.3335M6.16687 20.5412C6.5439 23.2542 7.80247 25.7679 9.74872 27.6953C11.695 29.6226 14.2209 30.8566 16.9375 31.2071C19.654 31.5576 22.4105 31.0053 24.7822 29.6351C27.1539 28.2649 29.0094 26.1529 30.0627 23.6245M30.8335 29.7912V23.6245H24.6669" stroke="#3D9970" stroke-width="3.08333" stroke-linecap="round" stroke-linejoin="round"/>
</g>
</svg>
