<svg width="100" height="60" viewBox="0 0 217 48" fill="none" xmlns="http://www.w3.org/2000/svg">
<ellipse cx="24.3121" cy="24.2576" rx="23.6066" ry="23.6065" fill="#4BA586"/>
<path d="M70.0239 23.6445C71.0814 23.8334 71.9785 24.3905 72.715 25.3159C73.4515 26.2412 73.8198 27.2894 73.8198 28.4603C73.8198 29.4612 73.5554 30.3677 73.0266 31.1797C72.5167 31.9729 71.7708 32.6056 70.7887 33.0777C69.8067 33.5309 68.6641 33.7576 67.3611 33.7576H59.4859V14.0697H66.9928C68.3336 14.0697 69.4856 14.2963 70.4488 14.7496C71.4119 15.2028 72.139 15.8166 72.63 16.5909C73.121 17.3463 73.3666 18.1961 73.3666 19.1404C73.3666 20.2735 73.0644 21.2178 72.4601 21.9732C71.8557 22.7286 71.0437 23.2857 70.0239 23.6445ZM62.7153 22.3414H66.7095C67.7671 22.3414 68.5886 22.1054 69.174 21.6333C69.7784 21.1422 70.0805 20.4435 70.0805 19.537C70.0805 18.6494 69.7784 17.9601 69.174 17.4691C68.5886 16.9592 67.7671 16.7042 66.7095 16.7042H62.7153V22.3414ZM67.0778 31.1231C68.1731 31.1231 69.0324 30.8587 69.6556 30.3299C70.2788 29.8011 70.5904 29.0646 70.5904 28.1203C70.5904 27.1572 70.2599 26.3923 69.599 25.8258C68.938 25.2592 68.0598 24.9759 66.9645 24.9759H62.7153V31.1231H67.0778ZM92.2249 25.5708C92.2249 26.1563 92.1871 26.6851 92.1115 27.1572H80.1855C80.28 28.4036 80.7426 29.4045 81.5736 30.1599C82.4045 30.9153 83.4243 31.293 84.633 31.293C86.3704 31.293 87.598 30.566 88.3156 29.1118H91.7999C91.3278 30.5471 90.4685 31.7274 89.2221 32.6528C87.9946 33.5593 86.4649 34.0125 84.633 34.0125C83.1411 34.0125 81.8002 33.682 80.6104 33.021C79.4396 32.3412 78.5142 31.3969 77.8343 30.1883C77.1733 28.9607 76.8428 27.5443 76.8428 25.9391C76.8428 24.3338 77.1639 22.9269 77.806 21.7182C78.467 20.4907 79.3829 19.5464 80.5538 18.8855C81.7436 18.2245 83.1033 17.894 84.633 17.894C86.106 17.894 87.4186 18.215 88.5706 18.8571C89.7226 19.4992 90.6196 20.4057 91.2617 21.5766C91.9038 22.7286 92.2249 24.06 92.2249 25.5708ZM88.8538 24.551C88.835 23.3613 88.41 22.4075 87.5791 21.6899C86.7481 20.9723 85.7189 20.6135 84.4914 20.6135C83.3771 20.6135 82.4234 20.9723 81.6302 21.6899C80.8371 22.3887 80.3649 23.3424 80.2139 24.551H88.8538ZM99.7607 20.7834V29.4234C99.7607 30.0089 99.8928 30.4338 100.157 30.6982C100.441 30.9437 100.913 31.0664 101.574 31.0664H103.557V33.7576H101.007C99.5529 33.7576 98.4387 33.4176 97.6644 32.7378C96.8901 32.0579 96.503 30.9531 96.503 29.4234V20.7834H94.6616V18.1489H96.503V14.268H99.7607V18.1489H103.557V20.7834H99.7607ZM106.047 25.8824C106.047 24.315 106.368 22.9269 107.01 21.7182C107.671 20.5096 108.558 19.5748 109.673 18.9138C110.806 18.2339 112.052 17.894 113.412 17.894C114.639 17.894 115.706 18.1395 116.613 18.6305C117.538 19.1026 118.275 19.6975 118.823 20.4152V18.1489H122.08V33.7576H118.823V31.4347C118.275 32.1712 117.529 32.785 116.585 33.276C115.64 33.767 114.564 34.0125 113.355 34.0125C112.014 34.0125 110.787 33.6726 109.673 32.9927C108.558 32.294 107.671 31.3308 107.01 30.1033C106.368 28.8569 106.047 27.4499 106.047 25.8824ZM118.823 25.9391C118.823 24.8626 118.596 23.9278 118.143 23.1346C117.708 22.3414 117.132 21.7371 116.415 21.3216C115.697 20.9062 114.923 20.6984 114.092 20.6984C113.261 20.6984 112.487 20.9062 111.769 21.3216C111.051 21.7182 110.466 22.3131 110.013 23.1063C109.578 23.8806 109.361 24.806 109.361 25.8824C109.361 26.9589 109.578 27.9031 110.013 28.7152C110.466 29.5273 111.051 30.1505 111.769 30.5849C112.505 31.0003 113.28 31.2081 114.092 31.2081C114.923 31.2081 115.697 31.0003 116.415 30.5849C117.132 30.1694 117.708 29.565 118.143 28.7719C118.596 27.9598 118.823 27.0155 118.823 25.9391ZM142.634 14.0697V33.7576H139.405V25.1459H130.141V33.7576H126.912V14.0697H130.141V22.5114H139.405V14.0697H142.634ZM154.246 34.0125C152.773 34.0125 151.441 33.682 150.252 33.021C149.062 32.3412 148.127 31.3969 147.447 30.1883C146.767 28.9607 146.427 27.5443 146.427 25.9391C146.427 24.3527 146.777 22.9458 147.476 21.7182C148.174 20.4907 149.128 19.5464 150.337 18.8855C151.545 18.2245 152.896 17.894 154.388 17.894C155.88 17.894 157.23 18.2245 158.438 18.8855C159.647 19.5464 160.601 20.4907 161.3 21.7182C161.998 22.9458 162.348 24.3527 162.348 25.9391C162.348 27.5254 161.989 28.9324 161.271 30.1599C160.554 31.3875 159.572 32.3412 158.325 33.021C157.098 33.682 155.738 34.0125 154.246 34.0125ZM154.246 31.2081C155.077 31.2081 155.851 31.0098 156.569 30.6132C157.305 30.2166 157.9 29.6217 158.353 28.8285C158.807 28.0353 159.033 27.0722 159.033 25.9391C159.033 24.806 158.816 23.8523 158.382 23.078C157.947 22.2848 157.371 21.6899 156.654 21.2933C155.936 20.8967 155.162 20.6984 154.331 20.6984C153.5 20.6984 152.726 20.8967 152.008 21.2933C151.309 21.6899 150.752 22.2848 150.337 23.078C149.921 23.8523 149.713 24.806 149.713 25.9391C149.713 27.6199 150.138 28.923 150.988 29.8483C151.857 30.7548 152.943 31.2081 154.246 31.2081ZM180.266 18.1489V33.7576H177.036V31.9163C176.527 32.5584 175.856 33.0683 175.025 33.446C174.213 33.8048 173.344 33.9842 172.419 33.9842C171.192 33.9842 170.087 33.7292 169.105 33.2193C168.142 32.7094 167.377 31.954 166.81 30.9531C166.262 29.9522 165.989 28.7435 165.989 27.3271V18.1489H169.19V26.8456C169.19 28.2431 169.539 29.3195 170.238 30.0749C170.937 30.8115 171.89 31.1797 173.099 31.1797C174.308 31.1797 175.261 30.8115 175.96 30.0749C176.678 29.3195 177.036 28.2431 177.036 26.8456V18.1489H180.266ZM190.782 34.0125C189.555 34.0125 188.45 33.7953 187.468 33.361C186.505 32.9077 185.74 32.3034 185.174 31.548C184.607 30.7737 184.305 29.9144 184.267 28.9702H187.61C187.666 29.6311 187.978 30.1883 188.545 30.6415C189.13 31.0759 189.857 31.293 190.726 31.293C191.632 31.293 192.331 31.1231 192.822 30.7831C193.332 30.4243 193.587 29.9711 193.587 29.4234C193.587 28.838 193.304 28.4036 192.737 28.1203C192.189 27.837 191.311 27.5254 190.103 27.1855C188.932 26.8645 187.978 26.5529 187.242 26.2507C186.505 25.9485 185.863 25.4858 185.315 24.8626C184.786 24.2394 184.522 23.4179 184.522 22.3981C184.522 21.5672 184.768 20.8117 185.259 20.1319C185.75 19.4331 186.448 18.8855 187.355 18.4889C188.28 18.0923 189.338 17.894 190.528 17.894C192.303 17.894 193.729 18.3472 194.805 19.2537C195.9 20.1413 196.486 21.3594 196.561 22.908H193.332C193.275 22.2093 192.992 21.6521 192.482 21.2367C191.972 20.8212 191.283 20.6135 190.414 20.6135C189.564 20.6135 188.913 20.774 188.46 21.095C188.006 21.4161 187.78 21.841 187.78 22.3698C187.78 22.7853 187.931 23.1346 188.233 23.4179C188.535 23.7012 188.903 23.9278 189.338 24.0978C189.772 24.2489 190.414 24.4472 191.264 24.6927C192.397 24.9948 193.323 25.3064 194.04 25.6275C194.777 25.9296 195.409 26.3829 195.938 26.9872C196.467 27.5915 196.741 28.3942 196.76 29.3951C196.76 30.2827 196.514 31.0759 196.023 31.7746C195.532 32.4734 194.833 33.021 193.927 33.4176C193.039 33.8142 191.991 34.0125 190.782 34.0125ZM215.145 25.5708C215.145 26.1563 215.107 26.6851 215.031 27.1572H203.105C203.2 28.4036 203.663 29.4045 204.494 30.1599C205.324 30.9153 206.344 31.293 207.553 31.293C209.29 31.293 210.518 30.566 211.236 29.1118H214.72C214.248 30.5471 213.388 31.7274 212.142 32.6528C210.915 33.5593 209.385 34.0125 207.553 34.0125C206.061 34.0125 204.72 33.682 203.53 33.021C202.36 32.3412 201.434 31.3969 200.754 30.1883C200.093 28.9607 199.763 27.5443 199.763 25.9391C199.763 24.3338 200.084 22.9269 200.726 21.7182C201.387 20.4907 202.303 19.5464 203.474 18.8855C204.664 18.2245 206.023 17.894 207.553 17.894C209.026 17.894 210.339 18.215 211.491 18.8571C212.643 19.4992 213.54 20.4057 214.182 21.5766C214.824 22.7286 215.145 24.06 215.145 25.5708ZM211.774 24.551C211.755 23.3613 211.33 22.4075 210.499 21.6899C209.668 20.9723 208.639 20.6135 207.411 20.6135C206.297 20.6135 205.343 20.9723 204.55 21.6899C203.757 22.3887 203.285 23.3424 203.134 24.551H211.774Z" fill="white"/>
<path d="M19.284 23.6938C20.244 23.8984 21.0151 24.3784 21.5974 25.1338C22.1797 25.8735 22.4709 26.7233 22.4709 27.6833C22.4709 29.0682 21.983 30.1698 21.0073 30.9882C20.0473 31.7908 18.7017 32.1921 16.9705 32.1921H9.2512V15.6204H16.7109C18.3948 15.6204 19.7089 16.0059 20.6532 16.7771C21.6132 17.5482 22.0932 18.5948 22.0932 19.9167C22.0932 20.8925 21.8335 21.703 21.3141 22.3482C20.8105 22.9935 20.1338 23.442 19.284 23.6938ZM13.2879 22.3246H15.9319C16.5928 22.3246 17.0964 22.183 17.4427 21.8997C17.8046 21.6007 17.9856 21.1679 17.9856 20.6013C17.9856 20.0348 17.8046 19.602 17.4427 19.303C17.0964 19.004 16.5928 18.8544 15.9319 18.8544H13.2879V22.3246ZM16.2623 28.9344C16.9391 28.9344 17.4584 28.7849 17.8204 28.4859C18.1981 28.1712 18.3869 27.7226 18.3869 27.1403C18.3869 26.558 18.1902 26.1017 17.7968 25.7712C17.4191 25.4407 16.8919 25.2754 16.2151 25.2754H13.2879V28.9344H16.2623ZM39.7551 15.6204V32.1921H35.7184V25.3699H29.439V32.1921H25.4023V15.6204H29.439V22.1121H35.7184V15.6204H39.7551Z" fill="#FEFEFF"/>
</svg>
